<svg xmlns="http://www.w3.org/2000/svg" width="1200" height="630" viewBox="0 0 1200 630" role="img" aria-labelledby="title desc">
  <title id="title">Stefano Caccamo social sharing preview</title>
  <desc id="desc">Preview image for Stefano Caccamo's personal links page with service categories and contact callout.</desc>
  <defs>
    <linearGradient id="bg" x1="0%" y1="0%" x2="100%" y2="100%">
      <stop offset="0%" stop-color="#16345f" />
      <stop offset="55%" stop-color="#08121f" />
      <stop offset="100%" stop-color="#03070f" />
    </linearGradient>
    <linearGradient id="card" x1="0%" y1="0%" x2="100%" y2="100%">
      <stop offset="0%" stop-color="#14304e" stop-opacity="0.96" />
      <stop offset="100%" stop-color="#0a1628" stop-opacity="0.96" />
    </linearGradient>
    <linearGradient id="accent" x1="0%" y1="0%" x2="100%" y2="0%">
      <stop offset="0%" stop-color="#32f6c5" />
      <stop offset="100%" stop-color="#ffc857" />
    </linearGradient>
    <filter id="blur-lg" x="-20%" y="-20%" width="140%" height="140%">
      <feGaussianBlur stdDeviation="32" />
    </filter>
  </defs>

  <rect width="1200" height="630" fill="url(#bg)" />

  <g opacity="0.18">
    <path d="M0 0H1200V630H0Z" fill="none" stroke="#ffffff" stroke-width="1" />
    <path d="M0 78H1200M0 156H1200M0 234H1200M0 312H1200M0 390H1200M0 468H1200M0 546H1200" stroke="#ffffff" stroke-opacity="0.18" />
    <path d="M75 0V630M150 0V630M225 0V630M300 0V630M375 0V630M450 0V630M525 0V630M600 0V630M675 0V630M750 0V630M825 0V630M900 0V630M975 0V630M1050 0V630M1125 0V630" stroke="#ffffff" stroke-opacity="0.18" />
  </g>

  <circle cx="1010" cy="114" r="102" fill="#2de2ff" fill-opacity="0.45" filter="url(#blur-lg)" />
  <circle cx="188" cy="522" r="94" fill="#ff7a59" fill-opacity="0.42" filter="url(#blur-lg)" />

  <rect x="72" y="74" width="1056" height="482" rx="36" fill="#0d192b" fill-opacity="0.82" stroke="#dfe9ff" stroke-opacity="0.18" />

  <g transform="translate(118 124)">
    <circle cx="72" cy="72" r="72" fill="#132946" stroke="#ffffff" stroke-opacity="0.7" stroke-width="4" />
    <circle cx="72" cy="58" r="28" fill="#32f6c5" fill-opacity="0.9" />
    <path d="M28 120c16-28 40-42 72-42s56 14 72 42" fill="none" stroke="#ffc857" stroke-width="18" stroke-linecap="round" />

    <text x="176" y="44" fill="#32f6c5" font-family="Arial, Helvetica, sans-serif" font-size="26" font-weight="700" letter-spacing="3">ALL MY LINKS</text>
    <text x="176" y="112" fill="#f5f8ff" font-family="Arial, Helvetica, sans-serif" font-size="56" font-weight="700">Stefano Caccamo</text>
    <text x="176" y="158" fill="#b2c0d9" font-family="Arial, Helvetica, sans-serif" font-size="28">Video editing, websites, digital work, and direct contact.</text>
  </g>

  <g transform="translate(118 314)">
    <rect x="0" y="0" width="212" height="70" rx="20" fill="url(#card)" stroke="#32f6c5" stroke-opacity="0.44" />
    <text x="30" y="44" fill="#f5f8ff" font-family="Arial, Helvetica, sans-serif" font-size="28" font-weight="700">Video</text>

    <rect x="232" y="0" width="212" height="70" rx="20" fill="url(#card)" stroke="#ffc857" stroke-opacity="0.44" />
    <text x="262" y="44" fill="#f5f8ff" font-family="Arial, Helvetica, sans-serif" font-size="28" font-weight="700">Websites</text>

    <rect x="464" y="0" width="248" height="70" rx="20" fill="url(#card)" stroke="#ffffff" stroke-opacity="0.18" />
    <text x="494" y="44" fill="#f5f8ff" font-family="Arial, Helvetica, sans-serif" font-size="28" font-weight="700">Ferramenta</text>

    <rect x="732" y="0" width="266" height="70" rx="20" fill="url(#card)" stroke="#ffffff" stroke-opacity="0.18" />
    <text x="762" y="44" fill="#f5f8ff" font-family="Arial, Helvetica, sans-serif" font-size="28" font-weight="700">Falegnameria</text>
  </g>

  <g transform="translate(118 422)">
    <rect x="0" y="0" width="430" height="92" rx="24" fill="#101c2f" stroke="#dfe9ff" stroke-opacity="0.18" />
    <text x="28" y="36" fill="#b2c0d9" font-family="Arial, Helvetica, sans-serif" font-size="22" font-weight="700" letter-spacing="1">CONTACT</text>
    <text x="28" y="70" fill="#f5f8ff" font-family="Arial, Helvetica, sans-serif" font-size="30" font-weight="700">347 834 9694</text>

    <rect x="458" y="0" width="540" height="92" rx="24" fill="#101c2f" stroke="#dfe9ff" stroke-opacity="0.18" />
    <text x="486" y="36" fill="#b2c0d9" font-family="Arial, Helvetica, sans-serif" font-size="22" font-weight="700" letter-spacing="1">EMAIL</text>
    <text x="486" y="70" fill="#f5f8ff" font-family="Arial, Helvetica, sans-serif" font-size="30" font-weight="700">stefanocaccamo1@outlook.com</text>
  </g>

  <rect x="118" y="578" width="998" height="8" rx="4" fill="url(#accent)" />
</svg>
