<svg xmlns="http://www.w3.org/2000/svg" viewBox="0 0 64 64" role="img" aria-label="BC favicon">
  <defs>
    <linearGradient id="g" x1="0" y1="0" x2="1" y2="1">
      <stop offset="0%" stop-color="#32f6c5"/>
      <stop offset="100%" stop-color="#2de2ff"/>
    </linearGradient>
  </defs>
  <rect width="64" height="64" rx="14" fill="#08121f"/>
  <rect x="5" y="5" width="54" height="54" rx="11" fill="none" stroke="url(#g)" stroke-width="3"/>
  <path d="M20 18h13c6 0 10 4 10 9 0 3-1 6-5 7 4 1 6 4 6 8 0 6-5 10-12 10H20V18zm12 13c3 0 5-2 5-4 0-3-2-4-5-4h-6v8h6zm1 16c3 0 6-2 6-5 0-3-2-5-6-5h-7v10h7z" fill="#f5f8ff"/>
</svg>
